<?xml version="1.0" encoding="utf-8"?>
<!-- Generator: Adobe Illustrator 23.0.2, SVG Export Plug-In . SVG Version: 6.00 Build 0)  -->
<svg version="1.1" id="Layer_1" xmlns="http://www.w3.org/2000/svg" xmlns:xlink="http://www.w3.org/1999/xlink" x="0px" y="0px"
	 width="228px" height="67px" viewBox="0 0 228 67" style="enable-background:new 0 0 228 67;" xml:space="preserve">
<style type="text/css">
	.st0{fill:url(#SVGID_1_);}
	.st1{fill:url(#SVGID_2_);}
	.st2{fill:url(#SVGID_3_);}
	.st3{opacity:0.44;fill:url(#SVGID_4_);enable-background:new    ;}
	.st4{fill:#4D4D4D;}
	.st5{opacity:0.43;fill:url(#SVGID_5_);enable-background:new    ;}
</style>
<linearGradient id="SVGID_1_" gradientUnits="userSpaceOnUse" x1="7.4279" y1="772.9203" x2="39.9586" y2="753.7583" gradientTransform="matrix(1 0 0 1 0 -724)">
	<stop  offset="0" style="stop-color:#8D8B00"/>
	<stop  offset="9.604574e-02" style="stop-color:#91940E"/>
	<stop  offset="0.2774" style="stop-color:#9BAC33"/>
	<stop  offset="0.5231" style="stop-color:#AAD26D"/>
	<stop  offset="0.544" style="stop-color:#ACD673"/>
	<stop  offset="0.5637" style="stop-color:#AAD26D"/>
	<stop  offset="0.8627" style="stop-color:#959F1F"/>
	<stop  offset="1" style="stop-color:#8D8B00"/>
</linearGradient>
<path class="st0" d="M41,34.4c0,0-0.4,8.9-6.4,13.8c-8.7,7.2-18.5,6.1-24.8,1.4c-7.2-5.4-7.7-13.2-7.7-13.2s1.3,1.2,3.8,1
	c3.7-0.2,7.5-2.7,7.5-2.7s0.2,2.8,2.3,4.4c2.9,2.2,7,1.3,9.3,0.1s5.2-3.4,9.1-5.1C38.6,32.3,41,34.4,41,34.4z"/>
<linearGradient id="SVGID_2_" gradientUnits="userSpaceOnUse" x1="4.2568" y1="761.001" x2="35.208" y2="742.7693" gradientTransform="matrix(1 0 0 1 0 -724)">
	<stop  offset="0" style="stop-color:#3B6E8F"/>
	<stop  offset="8.533001e-02" style="stop-color:#5487A0"/>
	<stop  offset="0.3305" style="stop-color:#99CCD0"/>
	<stop  offset="0.4451" style="stop-color:#B4E7E3"/>
	<stop  offset="0.5486" style="stop-color:#A3D6D7"/>
	<stop  offset="0.7535" style="stop-color:#77AAB9"/>
	<stop  offset="1" style="stop-color:#3B6E8F"/>
</linearGradient>
<path class="st1" d="M1.9,33c0,0,0.3-7.9,5.3-12.6c9.7-9.3,21.2-6.1,25.8-2.5c7.1,5.6,7.8,13.2,7.8,13.2S39.5,29.9,37,30
	c-3.7,0.2-7.6,2.8-7.6,2.8s-0.1-1.9-1.3-3.4c-1.1-1.4-2.6-1.9-2.6-1.9l4.6-0.7L30,26.1l-4.6,0.4l3.9-3.6l-0.4-0.5l-4,3.2l0.6-5.3
	l-0.7-0.1l-1.1,5.3L20.6,21l-0.7,0.4l2.9,4.6l-5.2-1.6L17.4,25l4.8,1.9c0,0-2.3,0.1-4.3,1.3c-2.2,1.3-5.2,3.6-9,5.2
	C4.3,35.2,1.9,33,1.9,33z"/>
<linearGradient id="SVGID_3_" gradientUnits="userSpaceOnUse" x1="14.9984" y1="761.5464" x2="27.8195" y2="754.0843" gradientTransform="matrix(1 0 0 1 0 -724)">
	<stop  offset="0" style="stop-color:#E86D24"/>
	<stop  offset="0.1744" style="stop-color:#ED8232"/>
	<stop  offset="0.5338" style="stop-color:#FBB955"/>
	<stop  offset="0.5659" style="stop-color:#FCBE58"/>
	<stop  offset="0.6414" style="stop-color:#F9B956"/>
	<stop  offset="0.726" style="stop-color:#EEAC50"/>
	<stop  offset="0.815" style="stop-color:#DD9545"/>
	<stop  offset="0.9071" style="stop-color:#C67637"/>
	<stop  offset="1" style="stop-color:#A84E25"/>
</linearGradient>
<path class="st2" d="M13.4,34.8c0,0,4.8-3.2,7.2-4c1.9-0.7,4.1-0.8,5.9-0.1c1.8,0.6,2.8,2.2,2.8,2.2s-2.2,1.5-4.3,2.6
	s-5.7,2.3-8,1.7C14.8,36.6,13.4,34.8,13.4,34.8z"/>
<linearGradient id="SVGID_4_" gradientUnits="userSpaceOnUse" x1="7.4391" y1="772.9548" x2="39.9696" y2="753.7929" gradientTransform="matrix(1 0 0 1 0 -724)">
	<stop  offset="0" style="stop-color:#404041"/>
	<stop  offset="6.736761e-02" style="stop-color:#4E4E4F"/>
	<stop  offset="0.1946" style="stop-color:#737374"/>
	<stop  offset="0.3683" style="stop-color:#AEAEAF"/>
	<stop  offset="0.544" style="stop-color:#F1F1F2"/>
	<stop  offset="0.7473" style="stop-color:#8F8D8E"/>
	<stop  offset="0.9209" style="stop-color:#413E3F"/>
	<stop  offset="1" style="stop-color:#231F20"/>
</linearGradient>
<path class="st3" d="M34,34.2c-3.9,1.6-6.8,3.8-9.1,5.1c-2.4,1.3-6.5,2.2-9.3-0.1c-2.1-1.6-2.3-4.4-2.3-4.4s-3.8,2.4-7.5,2.7
	c-2.5,0.1-3.8-1-3.8-1s0.5,7.8,7.7,13.2c6.3,4.7,16.1,5.8,24.8-1.4c6-4.9,6.4-13.8,6.4-13.8S38.6,32.3,34,34.2z M33.5,47.9
	c-7.5,6-16.8,5.5-22.5,1.3C4.4,44.4,3.3,38.4,3.2,38c0,0,0.4,0.7,3,0.5c3.4-0.2,6.5-2.1,6.5-2.1s0.2,2.2,2.9,3.9
	c3.2,2,7.6,1,9.7-0.2c2.1-1.1,5-3.3,8.4-4.9c4.3-2,6.3-0.4,6.3-0.4S39.7,42.9,33.5,47.9z"/>
<g>
	<path class="st4" d="M70,27.8c-1.6-1.4-3.8-2.2-5.9-2.2c-5,0-8.8,4.2-8.8,9.1s3.8,9,8.7,9c2.2,0,4.3-0.8,5.9-2.3v3.3
		c-1.7,1-3.9,1.6-5.8,1.6c-6.3,0-11.6-5-11.6-11.5c0-6.6,5.3-11.7,11.8-11.7c1.9,0,3.9,0.5,5.6,1.5L70,27.8L70,27.8z"/>
	<path class="st4" d="M85.7,45.8H83v-2.2l0,0c-1.1,1.6-2.7,2.6-4.7,2.6c-4.2,0-6.6-3.5-6.6-7.5c0-3.8,2.5-7.2,6.5-7.2
		c2,0,3.7,1.1,4.8,2.7l0,0V32h2.7C85.7,32,85.7,45.8,85.7,45.8z M83.2,38.9c0-2.7-1.6-4.9-4.5-4.9c-2.7,0-4.4,2.4-4.4,4.9
		c0,2.6,1.6,5,4.4,5C81.6,43.9,83.2,41.6,83.2,38.9z"/>
	<path class="st4" d="M91.6,45.8H89V20.2h2.7L91.6,45.8L91.6,45.8z"/>
	<path class="st4" d="M98.8,25.7c0,1-0.8,1.8-1.8,1.8s-1.8-0.8-1.8-1.8s0.8-1.9,1.8-1.9C98,23.9,98.8,24.7,98.8,25.7z M98.3,45.8
		h-2.7V32h2.7V45.8z"/>
	<path class="st4" d="M109.1,22.9c-0.5-0.2-1.2-0.6-1.8-0.6c-1.9,0-1.9,2.4-1.9,3.7v6h3.7v2.5h-3.7v11.3h-2.7V34.5h-1.2V32h1.2v-6.7
		c0-3,1-5.4,4.4-5.4c0.6,0,1.3,0.1,1.9,0.4L109.1,22.9L109.1,22.9z"/>
	<path class="st4" d="M123.6,38.9c0,4.2-3.2,7.3-7.4,7.3c-4.1,0-7.4-3.2-7.4-7.3c0-4.2,3.2-7.3,7.4-7.3
		C120.3,31.6,123.6,34.8,123.6,38.9z M111.5,38.9c0,2.6,2.1,4.8,4.7,4.8s4.7-2.2,4.7-4.8s-2.1-4.8-4.7-4.8
		C113.6,34.1,111.5,36.3,111.5,38.9z"/>
	<path class="st4" d="M128.5,34.2L128.5,34.2c0.7-1.6,2.1-2.7,3.9-2.7c0.8,0,1.5,0.3,2.2,0.7l-1.2,2.4c-0.5-0.4-1-0.6-1.6-0.6
		c-2.9,0-3.2,2.7-3.2,4.9v6.8h-2.7V32h2.7L128.5,34.2L128.5,34.2z"/>
	<path class="st4" d="M138.6,33.9L138.6,33.9c0.9-1.5,2.5-2.3,4.2-2.3c3.9,0,4.9,2.6,4.9,6v8.2H145v-7.9c0-2.4-0.3-3.9-3-3.9
		c-3.4,0-3.4,3-3.4,5.5v6.3H136V32h2.6V33.9z"/>
	<path class="st4" d="M154.8,25.7c0,1-0.8,1.8-1.8,1.8s-1.8-0.8-1.8-1.8s0.8-1.9,1.8-1.9S154.8,24.7,154.8,25.7z M154.3,45.8h-2.7
		V32h2.7V45.8z"/>
	<path class="st4" d="M171.2,45.8h-2.7v-2.2h-0.1c-1.1,1.6-2.7,2.6-4.7,2.6c-4.2,0-6.6-3.5-6.6-7.5c0-3.8,2.5-7.2,6.5-7.2
		c2,0,3.7,1.1,4.8,2.7h0.1V32h2.7V45.8z M168.7,38.9c0-2.7-1.6-4.9-4.5-4.9c-2.7,0-4.4,2.4-4.4,4.9c0,2.6,1.6,5,4.4,5
		C167.1,43.9,168.7,41.6,168.7,38.9z"/>
	<path class="st4" d="M185.6,45.8h-2.8V23.6h2.8V45.8z"/>
	<path class="st4" d="M199.3,27.8c-0.8-1.4-1.9-2.1-3.6-2.1c-1.8,0-3.7,1.2-3.7,3.2c0,1.7,1.7,2.6,3.1,3.2l1.6,0.6
		c3.2,1.2,5.5,3,5.5,6.7c0,4-3.1,6.9-7.1,6.9c-3.6,0-6.4-2.7-6.9-6.2l2.8-0.6c0,2.4,1.9,4.2,4.3,4.2c2.4,0,4.1-2,4.1-4.3
		c0-2.4-1.9-3.4-3.8-4.2l-1.5-0.6c-2.5-1.1-4.8-2.5-4.8-5.6c0-3.6,3.2-5.7,6.5-5.7c2.5,0,4.5,1.2,5.7,3.4L199.3,27.8z"/>
	<path class="st4" d="M226.7,34.7c0,6.6-5.2,11.6-11.6,11.6c-6.4,0-11.6-5-11.6-11.6c0-6.4,5.3-11.6,11.6-11.6
		C221.4,23.1,226.7,28.3,226.7,34.7z M223.9,34.7c0-4.9-3.7-9-8.9-9s-8.9,4.1-8.9,9c0,5.1,4.1,9,8.9,9
		C219.8,43.7,223.9,39.8,223.9,34.7z"/>
</g>
<linearGradient id="SVGID_5_" gradientUnits="userSpaceOnUse" x1="4.2334" y1="761.0092" x2="35.3183" y2="742.9174" gradientTransform="matrix(1 0 0 1 0 -724)">
	<stop  offset="0" style="stop-color:#231F20"/>
	<stop  offset="0.5055" style="stop-color:#A8A8A8"/>
	<stop  offset="1" style="stop-color:#000000"/>
</linearGradient>
<path class="st5" d="M20.9,26.3c-2.1,0.1-4.6,1.8-5.3,2.3c-2.3,1.4-2.8,1.8-4.6,2.8c-1.8,0.9-5.8,2.6-8,1.2c0.1-1.7,0.9-8,5.5-12.2
	c4.4-4,8.9-5.3,14.1-5.2c6.6,0.1,10.5,3.7,12.5,5.7c2.2,2.2,4.2,7,4.5,8.5c-0.5-0.5-3.5-1.2-9.6,2.1c-0.3-1.6-1.5-3.5-3.3-4.2l0,0
	l-1.1,0.2c0,0,1.6,0.5,2.6,2c1.1,1.5,1.3,3.4,1.3,3.4s3.9-2.5,7.6-2.8c2.5-0.1,3.8,1.1,3.8,1.1s-0.7-7.6-7.8-13.2
	c-4.6-3.6-16.2-6.8-25.8,2.5C2.3,25.2,1.9,33,1.9,33s2.3,2.2,6.9,0.3c3.9-1.6,6.8-3.9,9-5.2c2-1.2,4.3-1.3,4.3-1.3L20.9,26.3z"/>
</svg>
